<svg width="1326" height="354" viewBox="0 0 1326 354" fill="none" xmlns="http://www.w3.org/2000/svg">
<g clip-path="url(#clip0_120_621)">
<path d="M281.473 173.719C282.319 165.613 285.786 158.81 291.873 153.309C297.993 147.775 305.187 145.008 313.455 145.008C321.691 145.008 328.885 147.775 335.037 153.309C341.092 158.81 344.559 165.613 345.438 173.719H281.473ZM313.455 139.637C303.104 139.637 294.249 143.315 286.893 150.672C279.568 157.996 275.906 166.834 275.906 177.186C275.906 187.537 279.568 196.375 286.893 203.699C294.249 211.056 303.104 214.734 313.455 214.734C321.43 214.734 328.657 212.407 335.135 207.752C341.45 203.227 345.942 197.319 348.611 190.027H342.898C340.392 195.789 336.518 200.428 331.277 203.943C325.874 207.557 319.933 209.363 313.455 209.363C304.926 209.363 297.553 206.434 291.336 200.574C285.184 194.715 281.863 187.553 281.375 179.09H350.906L350.955 178.162L351.004 177.186C351.004 176.209 350.939 175.053 350.809 173.719C349.93 164.148 345.926 156.092 338.797 149.549C331.635 142.941 323.188 139.637 313.455 139.637ZM361.014 212H366.385V122.742H361.014V212ZM381.961 173.719C382.807 165.613 386.274 158.81 392.361 153.309C398.481 147.775 405.675 145.008 413.943 145.008C422.179 145.008 429.373 147.775 435.525 153.309C441.58 158.81 445.047 165.613 445.926 173.719H381.961ZM413.943 139.637C403.592 139.637 394.738 143.315 387.381 150.672C380.057 157.996 376.395 166.834 376.395 177.186C376.395 187.537 380.057 196.375 387.381 203.699C394.738 211.056 403.592 214.734 413.943 214.734C421.919 214.734 429.145 212.407 435.623 207.752C441.938 203.227 446.43 197.319 449.1 190.027H443.387C440.88 195.789 437.007 200.428 431.766 203.943C426.362 207.557 420.421 209.363 413.943 209.363C405.415 209.363 398.042 206.434 391.824 200.574C385.672 194.715 382.352 187.553 381.863 179.09H451.395L451.443 178.162L451.492 177.186C451.492 176.209 451.427 175.053 451.297 173.719C450.418 164.148 446.414 156.092 439.285 149.549C432.124 142.941 423.676 139.637 413.943 139.637ZM522.928 142.273L490.945 202.918L458.963 142.273H452.957L490.945 214.588L528.934 142.273H522.928ZM600.125 177.186C600.125 186.072 596.984 193.657 590.701 199.939C584.419 206.222 576.834 209.363 567.947 209.363C559.061 209.363 551.476 206.222 545.193 199.939C538.911 193.657 535.77 186.072 535.77 177.186C535.77 168.299 538.911 160.714 545.193 154.432C551.476 148.149 559.061 145.008 567.947 145.008C576.834 145.008 584.419 148.149 590.701 154.432C596.984 160.714 600.125 168.299 600.125 177.186ZM600.125 212.049H605.496V177.186C605.496 166.834 601.818 157.996 594.461 150.672C587.137 143.315 578.299 139.637 567.947 139.637C557.596 139.637 548.742 143.315 541.385 150.672C534.061 157.996 530.398 166.834 530.398 177.186C530.398 187.537 534.061 196.391 541.385 203.748C548.742 211.072 557.596 214.734 567.947 214.734C574.653 214.734 580.903 213.058 586.697 209.705C592.296 206.417 596.772 201.99 600.125 196.424V212.049ZM660.135 203.553C655.968 207.329 651.036 209.217 645.34 209.217C639.22 209.217 633.995 207.052 629.666 202.723C625.337 198.393 623.172 193.169 623.172 187.049V147.645H660.135V142.273H623.172V129.725H617.752V187.049C617.752 194.633 620.47 201.128 625.906 206.531C631.277 211.902 637.755 214.588 645.34 214.588C650.841 214.588 655.773 213.172 660.135 210.34V203.553ZM669.363 173.719C670.21 165.613 673.676 158.81 679.764 153.309C685.883 147.775 693.077 145.008 701.346 145.008C709.581 145.008 716.775 147.775 722.928 153.309C728.982 158.81 732.449 165.613 733.328 173.719H669.363ZM701.346 139.637C690.994 139.637 682.14 143.315 674.783 150.672C667.459 157.996 663.797 166.834 663.797 177.186C663.797 187.537 667.459 196.375 674.783 203.699C682.14 211.056 690.994 214.734 701.346 214.734C709.321 214.734 716.548 212.407 723.025 207.752C729.34 203.227 733.833 197.319 736.502 190.027H730.789C728.283 195.789 724.409 200.428 719.168 203.943C713.764 207.557 707.824 209.363 701.346 209.363C692.817 209.363 685.444 206.434 679.227 200.574C673.074 194.715 669.754 187.553 669.266 179.09H738.797L738.846 178.162L738.895 177.186C738.895 176.209 738.829 175.053 738.699 173.719C737.82 164.148 733.816 156.092 726.688 149.549C719.526 142.941 711.079 139.637 701.346 139.637ZM781.717 212H787.088V142.273H781.717V212ZM804.666 212.098V171.57C804.666 164.148 807.286 157.817 812.527 152.576C817.768 147.335 824.1 144.715 831.521 144.715C838.911 144.715 845.226 147.335 850.467 152.576C855.74 157.817 858.377 164.148 858.377 171.57V212.098H863.699V171.57C863.699 162.684 860.558 155.083 854.275 148.768C847.96 142.485 840.376 139.344 831.521 139.344C822.635 139.344 815.034 142.485 808.719 148.768C802.436 155.083 799.295 162.684 799.295 171.57V212.098H804.666ZM875.955 212H881.326V142.273H875.955V212ZM935.916 203.553C931.749 207.329 926.818 209.217 921.121 209.217C915.001 209.217 909.777 207.052 905.447 202.723C901.118 198.393 898.953 193.169 898.953 187.049V147.645H935.916V142.273H898.953V129.725H893.533V187.049C893.533 194.633 896.251 201.128 901.688 206.531C907.059 211.902 913.536 214.588 921.121 214.588C926.622 214.588 931.554 213.172 935.916 210.34V203.553ZM948.123 212H953.494V142.273H948.123V212ZM1033.23 177.186C1033.23 186.072 1030.09 193.657 1023.81 199.939C1017.52 206.222 1009.94 209.363 1001.05 209.363C992.166 209.363 984.581 206.222 978.299 199.939C972.016 193.657 968.875 186.072 968.875 177.186C968.875 168.299 972.016 160.714 978.299 154.432C984.581 148.149 992.166 145.008 1001.05 145.008C1009.94 145.008 1017.52 148.149 1023.81 154.432C1030.09 160.714 1033.23 168.299 1033.23 177.186ZM1033.23 212.049H1038.6V177.186C1038.6 166.834 1034.92 157.996 1027.57 150.672C1020.24 143.315 1011.4 139.637 1001.05 139.637C990.701 139.637 981.847 143.315 974.49 150.672C967.166 157.996 963.504 166.834 963.504 177.186C963.504 187.537 967.166 196.391 974.49 203.748C981.847 211.072 990.701 214.734 1001.05 214.734C1007.76 214.734 1014.01 213.058 1019.8 209.705C1025.4 206.417 1029.88 201.99 1033.23 196.424V212.049ZM1093.24 203.553C1089.07 207.329 1084.14 209.217 1078.45 209.217C1072.33 209.217 1067.1 207.052 1062.77 202.723C1058.44 198.393 1056.28 193.169 1056.28 187.049V147.645H1093.24V142.273H1056.28V129.725H1050.86V187.049C1050.86 194.633 1053.58 201.128 1059.01 206.531C1064.38 211.902 1070.86 214.588 1078.45 214.588C1083.95 214.588 1088.88 213.172 1093.24 210.34V203.553ZM1105.45 212H1110.82V142.273H1105.45V212ZM1189.33 142.273L1157.35 202.918L1125.37 142.273H1119.36L1157.35 214.588L1195.34 142.273H1189.33ZM1202.37 173.719C1203.22 165.613 1206.68 158.81 1212.77 153.309C1218.89 147.775 1226.09 145.008 1234.35 145.008C1242.59 145.008 1249.78 147.775 1255.94 153.309C1261.99 158.81 1265.46 165.613 1266.34 173.719H1202.37ZM1234.35 139.637C1224 139.637 1215.15 143.315 1207.79 150.672C1200.47 157.996 1196.8 166.834 1196.8 177.186C1196.8 187.537 1200.47 196.375 1207.79 203.699C1215.15 211.056 1224 214.734 1234.35 214.734C1242.33 214.734 1249.56 212.407 1256.03 207.752C1262.35 203.227 1266.84 197.319 1269.51 190.027H1263.8C1261.29 195.789 1257.42 200.428 1252.18 203.943C1246.77 207.557 1240.83 209.363 1234.35 209.363C1225.82 209.363 1218.45 206.434 1212.23 200.574C1206.08 194.715 1202.76 187.553 1202.27 179.09H1271.8L1271.85 178.162L1271.9 177.186C1271.9 176.209 1271.84 175.053 1271.71 173.719C1270.83 164.148 1266.82 156.092 1259.7 149.549C1252.53 142.941 1244.09 139.637 1234.35 139.637Z" fill="black"/>
<path d="M281.473 173.719L280.478 173.615L280.363 174.719H281.473V173.719ZM291.873 153.309L292.544 154.051L292.544 154.05L291.873 153.309ZM335.037 153.309L335.71 152.568L335.706 152.565L335.037 153.309ZM345.438 173.719V174.719H346.552L346.432 173.611L345.438 173.719ZM335.135 207.752L334.552 206.939L334.551 206.94L335.135 207.752ZM348.611 190.027L349.55 190.371L350.042 189.027H348.611V190.027ZM342.898 190.027V189.027H342.243L341.981 189.628L342.898 190.027ZM331.277 203.943L331.833 204.775L331.834 204.774L331.277 203.943ZM291.336 200.574L290.646 201.298L290.65 201.302L291.336 200.574ZM281.375 179.09V178.09H280.316L280.377 179.147L281.375 179.09ZM350.906 179.09V180.09H351.855L351.905 179.142L350.906 179.09ZM350.955 178.162L351.954 178.215L351.954 178.212L350.955 178.162ZM351.004 177.186L352.003 177.235L352.004 177.211V177.186H351.004ZM350.809 173.719L349.813 173.81L349.813 173.816L350.809 173.719ZM338.797 149.549L338.119 150.284L338.121 150.286L338.797 149.549ZM282.467 173.823C283.288 165.964 286.638 159.388 292.544 154.051L291.203 152.567C284.934 158.232 281.35 165.262 280.478 173.615L282.467 173.823ZM292.544 154.05C298.479 148.683 305.434 146.008 313.455 146.008V144.008C304.94 144.008 297.506 146.866 291.202 152.567L292.544 154.05ZM313.455 146.008C321.443 146.008 328.399 148.682 334.368 154.052L335.706 152.565C329.371 146.867 321.939 144.008 313.455 144.008V146.008ZM334.365 154.049C340.239 159.386 343.591 165.965 344.443 173.827L346.432 173.611C345.526 165.262 341.944 158.234 335.71 152.568L334.365 154.049ZM345.438 172.719H281.473V174.719H345.438V172.719ZM313.455 138.637C302.837 138.637 293.729 142.422 286.185 149.965L287.6 151.379C294.77 144.209 303.37 140.637 313.455 140.637V138.637ZM286.185 149.965C278.674 157.476 274.906 166.569 274.906 177.186H276.906C276.906 167.099 280.463 158.516 287.6 151.379L286.185 149.965ZM274.906 177.186C274.906 187.803 278.674 196.895 286.185 204.406L287.6 202.992C280.463 195.855 276.906 187.272 276.906 177.186H274.906ZM286.185 204.406C293.729 211.95 302.837 215.734 313.455 215.734V213.734C303.37 213.734 294.77 210.162 287.6 202.992L286.185 204.406ZM313.455 215.734C321.64 215.734 329.07 213.341 335.718 208.564L334.551 206.94C328.243 211.473 321.221 213.734 313.455 213.734V215.734ZM335.717 208.565C342.196 203.923 346.812 197.852 349.55 190.371L347.672 189.684C345.072 196.786 340.704 202.531 334.552 206.939L335.717 208.565ZM348.611 189.027H342.898V191.027H348.611V189.027ZM341.981 189.628C339.552 195.214 335.803 199.703 330.72 203.113L331.834 204.774C337.233 201.152 341.232 196.364 343.815 190.426L341.981 189.628ZM330.721 203.112C325.482 206.616 319.734 208.363 313.455 208.363V210.363C320.132 210.363 326.266 208.498 331.833 204.775L330.721 203.112ZM313.455 208.363C305.182 208.363 298.054 205.531 292.022 199.846L290.65 201.302C297.053 207.336 304.671 210.363 313.455 210.363V208.363ZM292.026 199.85C286.057 194.165 282.847 187.242 282.373 179.032L280.377 179.147C280.88 187.865 284.311 195.264 290.646 201.298L292.026 199.85ZM281.375 180.09H350.906V178.09H281.375V180.09ZM351.905 179.142L351.954 178.215L349.956 178.11L349.908 179.037L351.905 179.142ZM351.954 178.212L352.003 177.235L350.005 177.136L349.956 178.112L351.954 178.212ZM352.004 177.186C352.004 176.167 351.936 174.978 351.804 173.622L349.813 173.816C349.941 175.129 350.004 176.251 350.004 177.186H352.004ZM351.804 173.627C350.903 163.808 346.784 155.522 339.473 148.812L338.121 150.286C345.068 156.662 348.957 164.489 349.813 173.81L351.804 173.627ZM339.475 148.814C332.129 142.036 323.44 138.637 313.455 138.637V140.637C322.937 140.637 331.142 143.846 338.119 150.284L339.475 148.814ZM361.014 212H360.014V213H361.014V212ZM366.385 212V213H367.385V212H366.385ZM366.385 122.742H367.385V121.742H366.385V122.742ZM361.014 122.742V121.742H360.014V122.742H361.014ZM361.014 213H366.385V211H361.014V213ZM367.385 212V122.742H365.385V212H367.385ZM366.385 121.742H361.014V123.742H366.385V121.742ZM360.014 122.742V212H362.014V122.742H360.014ZM381.961 173.719L380.966 173.615L380.851 174.719H381.961V173.719ZM392.361 153.309L393.032 154.051L393.032 154.05L392.361 153.309ZM435.525 153.309L436.198 152.568L436.194 152.565L435.525 153.309ZM445.926 173.719V174.719H447.04L446.92 173.611L445.926 173.719ZM435.623 207.752L435.041 206.939L435.039 206.94L435.623 207.752ZM449.1 190.027L450.039 190.371L450.531 189.027H449.1V190.027ZM443.387 190.027V189.027H442.731L442.47 189.628L443.387 190.027ZM431.766 203.943L432.321 204.775L432.323 204.774L431.766 203.943ZM391.824 200.574L391.135 201.298L391.138 201.302L391.824 200.574ZM381.863 179.09V178.09H380.804L380.865 179.147L381.863 179.09ZM451.395 179.09V180.09H452.343L452.393 179.142L451.395 179.09ZM451.443 178.162L452.442 178.215L452.442 178.212L451.443 178.162ZM451.492 177.186L452.491 177.235L452.492 177.211V177.186H451.492ZM451.297 173.719L450.301 173.81L450.302 173.816L451.297 173.719ZM439.285 149.549L438.607 150.284L438.609 150.286L439.285 149.549ZM382.956 173.823C383.776 165.964 387.126 159.388 393.032 154.051L391.691 152.567C385.422 158.232 381.839 165.262 380.966 173.615L382.956 173.823ZM393.032 154.05C398.968 148.683 405.922 146.008 413.943 146.008V144.008C405.428 144.008 397.995 146.866 391.691 152.567L393.032 154.05ZM413.943 146.008C421.931 146.008 428.887 148.682 434.857 154.052L436.194 152.565C429.859 146.867 422.427 144.008 413.943 144.008V146.008ZM434.853 154.049C440.727 159.386 444.079 165.965 444.932 173.827L446.92 173.611C446.015 165.262 442.433 158.234 436.198 152.568L434.853 154.049ZM445.926 172.719H381.961V174.719H445.926V172.719ZM413.943 138.637C403.325 138.637 394.217 142.422 386.674 149.965L388.088 151.379C395.258 144.209 403.859 140.637 413.943 140.637V138.637ZM386.674 149.965C379.162 157.476 375.395 166.569 375.395 177.186H377.395C377.395 167.099 380.951 158.516 388.088 151.379L386.674 149.965ZM375.395 177.186C375.395 187.803 379.162 196.895 386.674 204.406L388.088 202.992C380.951 195.855 377.395 187.272 377.395 177.186H375.395ZM386.674 204.406C394.217 211.95 403.325 215.734 413.943 215.734V213.734C403.859 213.734 395.258 210.162 388.088 202.992L386.674 204.406ZM413.943 215.734C422.128 215.734 429.559 213.341 436.207 208.564L435.039 206.94C428.732 211.473 421.709 213.734 413.943 213.734V215.734ZM436.205 208.565C442.684 203.923 447.3 197.852 450.039 190.371L448.161 189.684C445.56 196.786 441.193 202.531 435.041 206.939L436.205 208.565ZM449.1 189.027H443.387V191.027H449.1V189.027ZM442.47 189.628C440.04 195.214 436.291 199.703 431.209 203.113L432.323 204.774C437.722 201.152 441.721 196.364 444.304 190.426L442.47 189.628ZM431.21 203.112C425.97 206.616 420.223 208.363 413.943 208.363V210.363C420.62 210.363 426.754 208.498 432.321 204.775L431.21 203.112ZM413.943 208.363C405.67 208.363 398.542 205.531 392.51 199.846L391.138 201.302C397.541 207.336 405.159 210.363 413.943 210.363V208.363ZM392.514 199.85C386.545 194.165 383.335 187.242 382.862 179.032L380.865 179.147C381.368 187.865 384.799 195.264 391.135 201.298L392.514 199.85ZM381.863 180.09H451.395V178.09H381.863V180.09ZM452.393 179.142L452.442 178.215L450.445 178.11L450.396 179.037L452.393 179.142ZM452.442 178.212L452.491 177.235L450.493 177.136L450.445 178.112L452.442 178.212ZM452.492 177.186C452.492 176.167 452.424 174.978 452.292 173.622L450.302 173.816C450.43 175.129 450.492 176.251 450.492 177.186H452.492ZM452.293 173.627C451.391 163.808 447.272 155.522 439.961 148.812L438.609 150.286C445.556 156.662 449.445 164.489 450.301 173.81L452.293 173.627ZM439.963 148.814C432.617 142.036 423.928 138.637 413.943 138.637V140.637C423.425 140.637 431.63 143.846 438.607 150.284L439.963 148.814ZM522.928 142.273V141.273H522.325L522.043 141.807L522.928 142.273ZM490.945 202.918L490.061 203.384L490.945 205.062L491.83 203.384L490.945 202.918ZM458.963 142.273L459.847 141.807L459.566 141.273H458.963V142.273ZM452.957 142.273V141.273H451.302L452.072 142.738L452.957 142.273ZM490.945 214.588L490.06 215.053L490.945 216.738L491.831 215.053L490.945 214.588ZM528.934 142.273L529.819 142.738L530.589 141.273H528.934V142.273ZM522.043 141.807L490.061 202.451L491.83 203.384L523.812 142.74L522.043 141.807ZM491.83 202.451L459.847 141.807L458.078 142.74L490.061 203.384L491.83 202.451ZM458.963 141.273H452.957V143.273H458.963V141.273ZM452.072 142.738L490.06 215.053L491.831 214.123L453.842 141.808L452.072 142.738ZM491.831 215.053L529.819 142.738L528.048 141.808L490.06 214.123L491.831 215.053ZM528.934 141.273H522.928V143.273H528.934V141.273ZM590.701 199.939L589.994 199.232L590.701 199.939ZM590.701 154.432L589.994 155.139L590.701 154.432ZM600.125 212.049H599.125V213.049H600.125V212.049ZM605.496 212.049V213.049H606.496V212.049H605.496ZM594.461 150.672L593.752 151.377L593.755 151.381L594.461 150.672ZM541.385 203.748L540.676 204.454L540.679 204.457L541.385 203.748ZM586.697 209.705L587.198 210.571L587.204 210.567L586.697 209.705ZM600.125 196.424H601.125V192.826L599.268 195.908L600.125 196.424ZM599.125 177.186C599.125 185.807 596.089 193.137 589.994 199.232L591.408 200.647C597.878 194.176 601.125 186.337 601.125 177.186H599.125ZM589.994 199.232C583.899 205.327 576.569 208.363 567.947 208.363V210.363C577.099 210.363 584.938 207.117 591.408 200.647L589.994 199.232ZM567.947 208.363C559.326 208.363 551.995 205.327 545.9 199.232L544.486 200.647C550.956 207.117 558.795 210.363 567.947 210.363V208.363ZM545.9 199.232C539.805 193.137 536.77 185.807 536.77 177.186H534.77C534.77 186.337 538.016 194.176 544.486 200.647L545.9 199.232ZM536.77 177.186C536.77 168.564 539.805 161.234 545.9 155.139L544.486 153.725C538.016 160.195 534.77 168.034 534.77 177.186H536.77ZM545.9 155.139C551.995 149.044 559.326 146.008 567.947 146.008V144.008C558.795 144.008 550.956 147.254 544.486 153.725L545.9 155.139ZM567.947 146.008C576.569 146.008 583.899 149.044 589.994 155.139L591.408 153.725C584.938 147.254 577.099 144.008 567.947 144.008V146.008ZM589.994 155.139C596.089 161.234 599.125 168.564 599.125 177.186H601.125C601.125 168.034 597.878 160.195 591.408 153.725L589.994 155.139ZM600.125 213.049H605.496V211.049H600.125V213.049ZM606.496 212.049V177.186H604.496V212.049H606.496ZM606.496 177.186C606.496 166.567 602.711 157.474 595.166 149.963L593.755 151.381C600.924 158.518 604.496 167.101 604.496 177.186H606.496ZM595.17 149.966C587.658 142.422 578.566 138.637 567.947 138.637V140.637C578.032 140.637 586.615 144.209 593.752 151.377L595.17 149.966ZM567.947 138.637C557.329 138.637 548.221 142.422 540.678 149.965L542.092 151.379C549.262 144.209 557.862 140.637 567.947 140.637V138.637ZM540.678 149.965C533.166 157.476 529.398 166.569 529.398 177.186H531.398C531.398 167.099 534.955 158.516 542.092 151.379L540.678 149.965ZM529.398 177.186C529.398 187.802 533.166 196.91 540.676 204.454L542.093 203.043C534.955 195.873 531.398 187.272 531.398 177.186H529.398ZM540.679 204.457C548.223 211.967 557.33 215.734 567.947 215.734V213.734C557.861 213.734 549.26 210.178 542.09 203.039L540.679 204.457ZM567.947 215.734C574.829 215.734 581.251 214.012 587.198 210.571L586.196 208.84C580.555 212.104 574.477 213.734 567.947 213.734V215.734ZM587.204 210.567C592.947 207.195 597.543 202.649 600.982 196.94L599.268 195.908C596.001 201.332 591.646 205.64 586.191 208.843L587.204 210.567ZM599.125 196.424V212.049H601.125V196.424H599.125ZM660.135 203.553H661.135V201.297L659.463 202.812L660.135 203.553ZM629.666 202.723L628.959 203.43L629.666 202.723ZM623.172 147.645V146.645H622.172V147.645H623.172ZM660.135 147.645V148.645H661.135V147.645H660.135ZM660.135 142.273H661.135V141.273H660.135V142.273ZM623.172 142.273H622.172V143.273H623.172V142.273ZM623.172 129.725H624.172V128.725H623.172V129.725ZM617.752 129.725V128.725H616.752V129.725H617.752ZM625.906 206.531L626.613 205.824L626.611 205.822L625.906 206.531ZM660.135 210.34L660.679 211.179L661.135 210.883V210.34H660.135ZM659.463 202.812C655.483 206.419 650.792 208.217 645.34 208.217V210.217C651.281 210.217 656.453 208.239 660.806 204.294L659.463 202.812ZM645.34 208.217C639.485 208.217 634.515 206.158 630.373 202.016L628.959 203.43C633.476 207.947 638.955 210.217 645.34 210.217V208.217ZM630.373 202.016C626.231 197.874 624.172 192.903 624.172 187.049H622.172C622.172 193.434 624.442 198.913 628.959 203.43L630.373 202.016ZM624.172 187.049V147.645H622.172V187.049H624.172ZM623.172 148.645H660.135V146.645H623.172V148.645ZM661.135 147.645V142.273H659.135V147.645H661.135ZM660.135 141.273H623.172V143.273H660.135V141.273ZM624.172 142.273V129.725H622.172V142.273H624.172ZM623.172 128.725H617.752V130.725H623.172V128.725ZM616.752 129.725V187.049H618.752V129.725H616.752ZM616.752 187.049C616.752 194.903 619.578 201.651 625.201 207.24L626.611 205.822C621.362 200.604 618.752 194.364 618.752 187.049H616.752ZM625.199 207.238C630.757 212.797 637.49 215.588 645.34 215.588V213.588C638.021 213.588 631.797 211.008 626.613 205.824L625.199 207.238ZM645.34 215.588C651.023 215.588 656.146 214.122 660.679 211.179L659.59 209.501C655.4 212.222 650.66 213.588 645.34 213.588V215.588ZM661.135 210.34V203.553H659.135V210.34H661.135ZM669.363 173.719L668.369 173.615L668.253 174.719H669.363V173.719ZM679.764 153.309L680.434 154.051L680.434 154.05L679.764 153.309ZM722.928 153.309L723.6 152.568L723.596 152.565L722.928 153.309ZM733.328 173.719V174.719H734.442L734.322 173.611L733.328 173.719ZM723.025 207.752L722.443 206.939L722.442 206.94L723.025 207.752ZM736.502 190.027L737.441 190.371L737.933 189.027H736.502V190.027ZM730.789 190.027V189.027H730.134L729.872 189.628L730.789 190.027ZM719.168 203.943L719.724 204.775L719.725 204.774L719.168 203.943ZM679.227 200.574L678.537 201.298L678.541 201.302L679.227 200.574ZM669.266 179.09V178.09H668.206L668.267 179.147L669.266 179.09ZM738.797 179.09V180.09H739.746L739.796 179.142L738.797 179.09ZM738.846 178.162L739.844 178.215L739.844 178.212L738.846 178.162ZM738.895 177.186L739.893 177.235L739.895 177.211V177.186H738.895ZM738.699 173.719L737.703 173.81L737.704 173.816L738.699 173.719ZM726.688 149.549L726.009 150.284L726.011 150.286L726.688 149.549ZM670.358 173.823C671.178 165.964 674.529 159.388 680.434 154.051L679.093 152.567C672.824 158.232 669.241 165.262 668.369 173.615L670.358 173.823ZM680.434 154.05C686.37 148.683 693.325 146.008 701.346 146.008V144.008C692.83 144.008 685.397 146.866 679.093 152.567L680.434 154.05ZM701.346 146.008C709.333 146.008 716.289 148.682 722.259 154.052L723.596 152.565C717.262 146.867 709.83 144.008 701.346 144.008V146.008ZM722.255 154.049C728.13 159.386 731.482 165.965 732.334 173.827L734.322 173.611C733.417 165.262 729.835 158.234 723.6 152.568L722.255 154.049ZM733.328 172.719H669.363V174.719H733.328V172.719ZM701.346 138.637C690.727 138.637 681.619 142.422 674.076 149.965L675.49 151.379C682.661 144.209 691.261 140.637 701.346 140.637V138.637ZM674.076 149.965C666.564 157.476 662.797 166.569 662.797 177.186H664.797C664.797 167.099 668.353 158.516 675.49 151.379L674.076 149.965ZM662.797 177.186C662.797 187.803 666.564 196.895 674.076 204.406L675.49 202.992C668.353 195.855 664.797 187.272 664.797 177.186H662.797ZM674.076 204.406C681.619 211.95 690.727 215.734 701.346 215.734V213.734C691.261 213.734 682.661 210.162 675.49 202.992L674.076 204.406ZM701.346 215.734C709.53 215.734 716.961 213.341 723.609 208.564L722.442 206.94C716.134 211.473 709.112 213.734 701.346 213.734V215.734ZM723.608 208.565C730.086 203.923 734.703 197.852 737.441 190.371L735.563 189.684C732.963 196.786 728.595 202.531 722.443 206.939L723.608 208.565ZM736.502 189.027H730.789V191.027H736.502V189.027ZM729.872 189.628C727.442 195.214 723.694 199.703 718.611 203.113L719.725 204.774C725.124 201.152 729.123 196.364 731.706 190.426L729.872 189.628ZM718.612 203.112C713.372 206.616 707.625 208.363 701.346 208.363V210.363C708.022 210.363 714.156 208.498 719.724 204.775L718.612 203.112ZM701.346 208.363C693.073 208.363 685.945 205.531 679.912 199.846L678.541 201.302C684.943 207.336 692.562 210.363 701.346 210.363V208.363ZM679.916 199.85C673.947 194.165 670.738 187.242 670.264 179.032L668.267 179.147C668.77 187.865 672.201 195.264 678.537 201.298L679.916 199.85ZM669.266 180.09H738.797V178.09H669.266V180.09ZM739.796 179.142L739.844 178.215L737.847 178.11L737.798 179.037L739.796 179.142ZM739.844 178.212L739.893 177.235L737.896 177.136L737.847 178.112L739.844 178.212ZM739.895 177.186C739.895 176.167 739.827 174.978 739.694 173.622L737.704 173.816C737.832 175.129 737.895 176.251 737.895 177.186H739.895ZM739.695 173.627C738.793 163.808 734.674 155.522 727.364 148.812L726.011 150.286C732.959 156.662 736.847 164.489 737.703 173.81L739.695 173.627ZM727.366 148.814C720.02 142.036 711.33 138.637 701.346 138.637V140.637C710.827 140.637 719.032 143.846 726.009 150.284L727.366 148.814ZM781.717 212H780.717V213H781.717V212ZM787.088 212V213H788.088V212H787.088ZM787.088 142.273H788.088V141.273H787.088V142.273ZM781.717 142.273V141.273H780.717V142.273H781.717ZM781.717 213H787.088V211H781.717V213ZM788.088 212V142.273H786.088V212H788.088ZM787.088 141.273H781.717V143.273H787.088V141.273ZM780.717 142.273V212H782.717V142.273H780.717ZM804.666 212.098V213.098H805.666V212.098H804.666ZM812.527 152.576L811.82 151.869L812.527 152.576ZM850.467 152.576L849.76 153.283L849.762 153.285L850.467 152.576ZM858.377 212.098H857.377V213.098H858.377V212.098ZM863.699 212.098V213.098H864.699V212.098H863.699ZM854.275 148.768L854.984 148.062L854.981 148.059L854.275 148.768ZM808.719 148.768L808.013 148.059L808.01 148.062L808.719 148.768ZM799.295 212.098H798.295V213.098H799.295V212.098ZM805.666 212.098V171.57H803.666V212.098H805.666ZM805.666 171.57C805.666 164.413 808.181 158.336 813.234 153.283L811.82 151.869C806.392 157.298 803.666 163.884 803.666 171.57H805.666ZM813.234 153.283C818.288 148.23 824.364 145.715 831.521 145.715V143.715C823.835 143.715 817.249 146.44 811.82 151.869L813.234 153.283ZM831.521 145.715C838.645 145.715 844.706 148.229 849.76 153.283L851.174 151.869C845.746 146.441 839.177 143.715 831.521 143.715V145.715ZM849.762 153.285C854.847 158.339 857.377 164.415 857.377 171.57H859.377C859.377 163.882 856.634 157.295 851.172 151.867L849.762 153.285ZM857.377 171.57V212.098H859.377V171.57H857.377ZM858.377 213.098H863.699V211.098H858.377V213.098ZM864.699 212.098V171.57H862.699V212.098H864.699ZM864.699 171.57C864.699 162.419 861.453 154.564 854.984 148.062L853.566 149.473C859.663 155.601 862.699 162.949 862.699 171.57H864.699ZM854.981 148.059C848.479 141.591 840.642 138.344 831.521 138.344V140.344C840.11 140.344 847.441 143.379 853.57 149.477L854.981 148.059ZM831.521 138.344C822.37 138.344 814.515 141.59 808.013 148.059L809.424 149.477C815.552 143.38 822.9 140.344 831.521 140.344V138.344ZM808.01 148.062C801.541 154.564 798.295 162.419 798.295 171.57H800.295C800.295 162.949 803.331 155.601 809.428 149.473L808.01 148.062ZM798.295 171.57V212.098H800.295V171.57H798.295ZM799.295 213.098H804.666V211.098H799.295V213.098ZM875.955 212H874.955V213H875.955V212ZM881.326 212V213H882.326V212H881.326ZM881.326 142.273H882.326V141.273H881.326V142.273ZM875.955 142.273V141.273H874.955V142.273H875.955ZM875.955 213H881.326V211H875.955V213ZM882.326 212V142.273H880.326V212H882.326ZM881.326 141.273H875.955V143.273H881.326V141.273ZM874.955 142.273V212H876.955V142.273H874.955ZM935.916 203.553H936.916V201.297L935.245 202.812L935.916 203.553ZM905.447 202.723L904.74 203.43L905.447 202.723ZM898.953 147.645V146.645H897.953V147.645H898.953ZM935.916 147.645V148.645H936.916V147.645H935.916ZM935.916 142.273H936.916V141.273H935.916V142.273ZM898.953 142.273H897.953V143.273H898.953V142.273ZM898.953 129.725H899.953V128.725H898.953V129.725ZM893.533 129.725V128.725H892.533V129.725H893.533ZM901.688 206.531L902.395 205.824L902.392 205.822L901.688 206.531ZM935.916 210.34L936.461 211.179L936.916 210.883V210.34H935.916ZM935.245 202.812C931.264 206.419 926.573 208.217 921.121 208.217V210.217C927.062 210.217 932.234 208.239 936.588 204.294L935.245 202.812ZM921.121 208.217C915.267 208.217 910.296 206.158 906.154 202.016L904.74 203.43C909.257 207.947 914.736 210.217 921.121 210.217V208.217ZM906.154 202.016C902.012 197.874 899.953 192.903 899.953 187.049H897.953C897.953 193.434 900.223 198.913 904.74 203.43L906.154 202.016ZM899.953 187.049V147.645H897.953V187.049H899.953ZM898.953 148.645H935.916V146.645H898.953V148.645ZM936.916 147.645V142.273H934.916V147.645H936.916ZM935.916 141.273H898.953V143.273H935.916V141.273ZM899.953 142.273V129.725H897.953V142.273H899.953ZM898.953 128.725H893.533V130.725H898.953V128.725ZM892.533 129.725V187.049H894.533V129.725H892.533ZM892.533 187.049C892.533 194.903 895.36 201.651 900.983 207.24L902.392 205.822C897.143 200.604 894.533 194.364 894.533 187.049H892.533ZM900.98 207.238C906.539 212.797 913.271 215.588 921.121 215.588V213.588C913.802 213.588 907.578 211.008 902.395 205.824L900.98 207.238ZM921.121 215.588C926.804 215.588 931.927 214.122 936.461 211.179L935.371 209.501C931.181 212.222 926.441 213.588 921.121 213.588V215.588ZM936.916 210.34V203.553H934.916V210.34H936.916ZM948.123 212H947.123V213H948.123V212ZM953.494 212V213H954.494V212H953.494ZM953.494 142.273H954.494V141.273H953.494V142.273ZM948.123 142.273V141.273H947.123V142.273H948.123ZM948.123 213H953.494V211H948.123V213ZM954.494 212V142.273H952.494V212H954.494ZM953.494 141.273H948.123V143.273H953.494V141.273ZM947.123 142.273V212H949.123V142.273H947.123ZM1023.81 199.939L1023.1 199.232L1023.81 199.939ZM1023.81 154.432L1023.1 155.139L1023.81 154.432ZM1033.23 212.049H1032.23V213.049H1033.23V212.049ZM1038.6 212.049V213.049H1039.6V212.049H1038.6ZM1027.57 150.672L1026.86 151.377L1026.86 151.381L1027.57 150.672ZM974.49 203.748L973.782 204.454L973.785 204.457L974.49 203.748ZM1019.8 209.705L1020.3 210.571L1020.31 210.567L1019.8 209.705ZM1033.23 196.424H1034.23V192.826L1032.37 195.908L1033.23 196.424ZM1032.23 177.186C1032.23 185.807 1029.19 193.137 1023.1 199.232L1024.51 200.647C1030.98 194.176 1034.23 186.337 1034.23 177.186H1032.23ZM1023.1 199.232C1017 205.327 1009.67 208.363 1001.05 208.363V210.363C1010.2 210.363 1018.04 207.117 1024.51 200.647L1023.1 199.232ZM1001.05 208.363C992.431 208.363 985.101 205.327 979.006 199.232L977.592 200.647C984.062 207.117 991.901 210.363 1001.05 210.363V208.363ZM979.006 199.232C972.911 193.137 969.875 185.807 969.875 177.186H967.875C967.875 186.337 971.122 194.176 977.592 200.647L979.006 199.232ZM969.875 177.186C969.875 168.564 972.911 161.234 979.006 155.139L977.592 153.725C971.122 160.195 967.875 168.034 967.875 177.186H969.875ZM979.006 155.139C985.101 149.044 992.431 146.008 1001.05 146.008V144.008C991.901 144.008 984.062 147.254 977.592 153.725L979.006 155.139ZM1001.05 146.008C1009.67 146.008 1017 149.044 1023.1 155.139L1024.51 153.725C1018.04 147.254 1010.2 144.008 1001.05 144.008V146.008ZM1023.1 155.139C1029.19 161.234 1032.23 168.564 1032.23 177.186H1034.23C1034.23 168.034 1030.98 160.195 1024.51 153.725L1023.1 155.139ZM1033.23 213.049H1038.6V211.049H1033.23V213.049ZM1039.6 212.049V177.186H1037.6V212.049H1039.6ZM1039.6 177.186C1039.6 166.567 1035.82 157.474 1028.27 149.963L1026.86 151.381C1034.03 158.518 1037.6 167.101 1037.6 177.186H1039.6ZM1028.28 149.966C1020.76 142.422 1011.67 138.637 1001.05 138.637V140.637C1011.14 140.637 1019.72 144.209 1026.86 151.377L1028.28 149.966ZM1001.05 138.637C990.434 138.637 981.326 142.422 973.783 149.965L975.197 151.379C982.368 144.209 990.968 140.637 1001.05 140.637V138.637ZM973.783 149.965C966.271 157.476 962.504 166.569 962.504 177.186H964.504C964.504 167.099 968.061 158.516 975.197 151.379L973.783 149.965ZM962.504 177.186C962.504 187.802 966.271 196.91 973.782 204.454L975.199 203.043C968.061 195.873 964.504 187.272 964.504 177.186H962.504ZM973.785 204.457C981.328 211.967 990.436 215.734 1001.05 215.734V213.734C990.966 213.734 982.366 210.178 975.196 203.039L973.785 204.457ZM1001.05 215.734C1007.93 215.734 1014.36 214.012 1020.3 210.571L1019.3 208.84C1013.66 212.104 1007.58 213.734 1001.05 213.734V215.734ZM1020.31 210.567C1026.05 207.195 1030.65 202.649 1034.09 196.94L1032.37 195.908C1029.11 201.332 1024.75 205.64 1019.3 208.843L1020.31 210.567ZM1032.23 196.424V212.049H1034.23V196.424H1032.23ZM1093.24 203.553H1094.24V201.297L1092.57 202.812L1093.24 203.553ZM1062.77 202.723L1062.06 203.43L1062.77 202.723ZM1056.28 147.645V146.645H1055.28V147.645H1056.28ZM1093.24 147.645V148.645H1094.24V147.645H1093.24ZM1093.24 142.273H1094.24V141.273H1093.24V142.273ZM1056.28 142.273H1055.28V143.273H1056.28V142.273ZM1056.28 129.725H1057.28V128.725H1056.28V129.725ZM1050.86 129.725V128.725H1049.86V129.725H1050.86ZM1059.01 206.531L1059.72 205.824L1059.72 205.822L1059.01 206.531ZM1093.24 210.34L1093.78 211.179L1094.24 210.883V210.34H1093.24ZM1092.57 202.812C1088.59 206.419 1083.9 208.217 1078.45 208.217V210.217C1084.39 210.217 1089.56 208.239 1093.91 204.294L1092.57 202.812ZM1078.45 208.217C1072.59 208.217 1067.62 206.158 1063.48 202.016L1062.06 203.43C1066.58 207.947 1072.06 210.217 1078.45 210.217V208.217ZM1063.48 202.016C1059.34 197.874 1057.28 192.903 1057.28 187.049H1055.28C1055.28 193.434 1057.55 198.913 1062.06 203.43L1063.48 202.016ZM1057.28 187.049V147.645H1055.28V187.049H1057.28ZM1056.28 148.645H1093.24V146.645H1056.28V148.645ZM1094.24 147.645V142.273H1092.24V147.645H1094.24ZM1093.24 141.273H1056.28V143.273H1093.24V141.273ZM1057.28 142.273V129.725H1055.28V142.273H1057.28ZM1056.28 128.725H1050.86V130.725H1056.28V128.725ZM1049.86 129.725V187.049H1051.86V129.725H1049.86ZM1049.86 187.049C1049.86 194.903 1052.68 201.651 1058.31 207.24L1059.72 205.822C1054.47 200.604 1051.86 194.364 1051.86 187.049H1049.86ZM1058.3 207.238C1063.86 212.797 1070.6 215.588 1078.45 215.588V213.588C1071.13 213.588 1064.9 211.008 1059.72 205.824L1058.3 207.238ZM1078.45 215.588C1084.13 215.588 1089.25 214.122 1093.78 211.179L1092.7 209.501C1088.51 212.222 1083.77 213.588 1078.45 213.588V215.588ZM1094.24 210.34V203.553H1092.24V210.34H1094.24ZM1105.45 212H1104.45V213H1105.45V212ZM1110.82 212V213H1111.82V212H1110.82ZM1110.82 142.273H1111.82V141.273H1110.82V142.273ZM1105.45 142.273V141.273H1104.45V142.273H1105.45ZM1105.45 213H1110.82V211H1105.45V213ZM1111.82 212V142.273H1109.82V212H1111.82ZM1110.82 141.273H1105.45V143.273H1110.82V141.273ZM1104.45 142.273V212H1106.45V142.273H1104.45ZM1189.33 142.273V141.273H1188.73L1188.45 141.807L1189.33 142.273ZM1157.35 202.918L1156.47 203.384L1157.35 205.062L1158.24 203.384L1157.35 202.918ZM1125.37 142.273L1126.25 141.807L1125.97 141.273H1125.37V142.273ZM1119.36 142.273V141.273H1117.71L1118.48 142.738L1119.36 142.273ZM1157.35 214.588L1156.47 215.053L1157.35 216.738L1158.24 215.053L1157.35 214.588ZM1195.34 142.273L1196.23 142.738L1196.99 141.273H1195.34V142.273ZM1188.45 141.807L1156.47 202.451L1158.24 203.384L1190.22 142.74L1188.45 141.807ZM1158.24 202.451L1126.25 141.807L1124.48 142.74L1156.47 203.384L1158.24 202.451ZM1125.37 141.273H1119.36V143.273H1125.37V141.273ZM1118.48 142.738L1156.47 215.053L1158.24 214.123L1120.25 141.808L1118.48 142.738ZM1158.24 215.053L1196.23 142.738L1194.45 141.808L1156.47 214.123L1158.24 215.053ZM1195.34 141.273H1189.33V143.273H1195.34V141.273ZM1202.37 173.719L1201.38 173.615L1201.26 174.719H1202.37V173.719ZM1212.77 153.309L1213.44 154.051L1213.44 154.05L1212.77 153.309ZM1255.94 153.309L1256.61 152.568L1256.6 152.565L1255.94 153.309ZM1266.34 173.719V174.719H1267.45L1267.33 173.611L1266.34 173.719ZM1256.03 207.752L1255.45 206.939L1255.45 206.94L1256.03 207.752ZM1269.51 190.027L1270.45 190.371L1270.94 189.027H1269.51V190.027ZM1263.8 190.027V189.027H1263.14L1262.88 189.628L1263.8 190.027ZM1252.18 203.943L1252.73 204.775L1252.73 204.774L1252.18 203.943ZM1212.23 200.574L1211.54 201.298L1211.55 201.302L1212.23 200.574ZM1202.27 179.09V178.09H1201.21L1201.28 179.147L1202.27 179.09ZM1271.8 179.09V180.09H1272.75L1272.8 179.142L1271.8 179.09ZM1271.85 178.162L1272.85 178.215L1272.85 178.212L1271.85 178.162ZM1271.9 177.186L1272.9 177.235L1272.9 177.211V177.186H1271.9ZM1271.71 173.719L1270.71 173.81L1270.71 173.816L1271.71 173.719ZM1259.7 149.549L1259.02 150.284L1259.02 150.286L1259.7 149.549ZM1203.37 173.823C1204.19 165.964 1207.54 159.388 1213.44 154.051L1212.1 152.567C1205.83 158.232 1202.25 165.262 1201.38 173.615L1203.37 173.823ZM1213.44 154.05C1219.38 148.683 1226.33 146.008 1234.35 146.008V144.008C1225.84 144.008 1218.4 146.866 1212.1 152.567L1213.44 154.05ZM1234.35 146.008C1242.34 146.008 1249.3 148.682 1255.27 154.052L1256.6 152.565C1250.27 146.867 1242.84 144.008 1234.35 144.008V146.008ZM1255.26 154.049C1261.14 159.386 1264.49 165.965 1265.34 173.827L1267.33 173.611C1266.42 165.262 1262.84 158.234 1256.61 152.568L1255.26 154.049ZM1266.34 172.719H1202.37V174.719H1266.34V172.719ZM1234.35 138.637C1223.74 138.637 1214.63 142.422 1207.08 149.965L1208.5 151.379C1215.67 144.209 1224.27 140.637 1234.35 140.637V138.637ZM1207.08 149.965C1199.57 157.476 1195.8 166.569 1195.8 177.186H1197.8C1197.8 167.099 1201.36 158.516 1208.5 151.379L1207.08 149.965ZM1195.8 177.186C1195.8 187.803 1199.57 196.895 1207.08 204.406L1208.5 202.992C1201.36 195.855 1197.8 187.272 1197.8 177.186H1195.8ZM1207.08 204.406C1214.63 211.95 1223.74 215.734 1234.35 215.734V213.734C1224.27 213.734 1215.67 210.162 1208.5 202.992L1207.08 204.406ZM1234.35 215.734C1242.54 215.734 1249.97 213.341 1256.62 208.564L1255.45 206.94C1249.14 211.473 1242.12 213.734 1234.35 213.734V215.734ZM1256.62 208.565C1263.09 203.923 1267.71 197.852 1270.45 190.371L1268.57 189.684C1265.97 196.786 1261.6 202.531 1255.45 206.939L1256.62 208.565ZM1269.51 189.027H1263.8V191.027H1269.51V189.027ZM1262.88 189.628C1260.45 195.214 1256.7 199.703 1251.62 203.113L1252.73 204.774C1258.13 201.152 1262.13 196.364 1264.71 190.426L1262.88 189.628ZM1251.62 203.112C1246.38 206.616 1240.63 208.363 1234.35 208.363V210.363C1241.03 210.363 1247.16 208.498 1252.73 204.775L1251.62 203.112ZM1234.35 208.363C1226.08 208.363 1218.95 205.531 1212.92 199.846L1211.55 201.302C1217.95 207.336 1225.57 210.363 1234.35 210.363V208.363ZM1212.92 199.85C1206.95 194.165 1203.75 187.242 1203.27 179.032L1201.28 179.147C1201.78 187.865 1205.21 195.264 1211.54 201.298L1212.92 199.85ZM1202.27 180.09H1271.8V178.09H1202.27V180.09ZM1272.8 179.142L1272.85 178.215L1270.85 178.11L1270.81 179.037L1272.8 179.142ZM1272.85 178.212L1272.9 177.235L1270.9 177.136L1270.85 178.112L1272.85 178.212ZM1272.9 177.186C1272.9 176.167 1272.83 174.978 1272.7 173.622L1270.71 173.816C1270.84 175.129 1270.9 176.251 1270.9 177.186H1272.9ZM1272.7 173.627C1271.8 163.808 1267.68 155.522 1260.37 148.812L1259.02 150.286C1265.97 156.662 1269.86 164.489 1270.71 173.81L1272.7 173.627ZM1260.37 148.814C1253.03 142.036 1244.34 138.637 1234.35 138.637V140.637C1243.83 140.637 1252.04 143.846 1259.02 150.284L1260.37 148.814Z" fill="black"/>
<mask id="mask0_120_621" style="mask-type:luminance" maskUnits="userSpaceOnUse" x="59" y="118" width="181" height="110">
<path d="M239.993 118.377H59.9932V227.694H239.993V118.377Z" fill="white"/>
</mask>
<g mask="url(#mask0_120_621)">
<path fill-rule="evenodd" clip-rule="evenodd" d="M239.774 226.886C209.841 217.363 202.961 163.917 206.469 141.21C187.697 149.71 100.827 138.8 59.9932 118.381C76.5355 161.497 163.497 163.355 198.694 157.634C199.919 183.212 212.146 227.619 239.774 226.886Z" fill="#00B775"/>
<path fill-rule="evenodd" clip-rule="evenodd" d="M197.074 175.972C192.434 176.85 156.306 183.299 129.412 179.581C100.625 175.603 84.4028 152.362 84.4028 152.362C114.292 164.413 179.553 166.766 195.037 161.265L195.186 162.582C195.588 167.074 196.218 171.544 197.074 175.972Z" fill="#00B775"/>
<path fill-rule="evenodd" clip-rule="evenodd" d="M202.891 196.966L203.207 198.007C150.059 212.222 126.817 206.484 110.534 183.55C129.671 190.236 184.878 187.18 198.453 182.386C199.331 186.035 200.354 189.6 201.491 193.006C201.93 194.306 202.395 195.649 202.891 196.966Z" fill="#00B775"/>
<path fill-rule="evenodd" clip-rule="evenodd" d="M205.362 204.206L213.572 218.119C178.275 232.404 151.784 215.239 145.431 210.686C165.903 213.755 190.725 210.791 205.362 204.206Z" fill="#00B775"/>
<path fill-rule="evenodd" clip-rule="evenodd" d="M223.731 226.657C217.928 227.448 203.4 229.059 200.173 225.301C206.074 224.287 214.345 221.494 216.672 220.687C218.772 222.958 221.143 224.964 223.731 226.657Z" fill="#00B775"/>
</g>
</g>
<defs>
<clipPath id="clip0_120_621">
<rect width="1326" height="354" fill="white"/>
</clipPath>
</defs>
</svg>
